<?xml version="1.0" encoding="UTF-8" standalone="no"?>
<svg
   xmlns:dc="http://purl.org/dc/elements/1.1/"
   xmlns:cc="http://creativecommons.org/ns#"
   xmlns:rdf="http://www.w3.org/1999/02/22-rdf-syntax-ns#"
   xmlns:svg="http://www.w3.org/2000/svg"
   xmlns="http://www.w3.org/2000/svg"
   viewBox="0 0 566.92932 377.95334"
   height="377.95334"
   width="566.92932"
   xml:space="preserve"
   id="svg2"
   version="1.1"><metadata
     id="metadata8"><rdf:RDF><cc:Work
         rdf:about=""><dc:format>image/svg+xml</dc:format><dc:type
           rdf:resource="http://purl.org/dc/dcmitype/StillImage" /></cc:Work></rdf:RDF></metadata><defs
     id="defs6"><linearGradient
       id="linearGradient30"
       spreadMethod="pad"
       gradientTransform="matrix(250.21478,-241.79004,-241.79004,-250.21478,70.510254,280.6084)"
       gradientUnits="userSpaceOnUse"
       y2="0"
       x2="1"
       y1="0"
       x1="0"><stop
         id="stop24"
         offset="0"
         style="stop-opacity:1;stop-color:#deebf2" /><stop
         id="stop26"
         offset="0.23283468"
         style="stop-opacity:1;stop-color:#deebf2" /><stop
         id="stop28"
         offset="1"
         style="stop-opacity:1;stop-color:#515254" /></linearGradient><clipPath
       id="clipPath40"
       clipPathUnits="userSpaceOnUse"><path
         id="path38"
         d="M 0,283.465 H 425.197 V 0 H 0 Z" /></clipPath><radialGradient
       id="radialGradient64"
       spreadMethod="pad"
       gradientTransform="matrix(167.56575,0,0,-167.56575,86.285645,260.11133)"
       gradientUnits="userSpaceOnUse"
       r="1"
       cy="0"
       cx="0"
       fy="0"
       fx="0"><stop
         id="stop58"
         offset="0"
         style="stop-opacity:1;stop-color:#ffffff" /><stop
         id="stop60"
         offset="0.88264369"
         style="stop-opacity:1;stop-color:#231f20" /><stop
         id="stop62"
         offset="1"
         style="stop-opacity:1;stop-color:#231f20" /></radialGradient><linearGradient
       id="linearGradient86"
       spreadMethod="pad"
       gradientTransform="matrix(-159.3611,153.99539,153.99539,159.3611,291.80078,66.768555)"
       gradientUnits="userSpaceOnUse"
       y2="0"
       x2="1"
       y1="0"
       x1="0"><stop
         id="stop80"
         offset="0"
         style="stop-opacity:1;stop-color:#deebf2" /><stop
         id="stop82"
         offset="0.23283468"
         style="stop-opacity:1;stop-color:#deebf2" /><stop
         id="stop84"
         offset="1"
         style="stop-opacity:1;stop-color:#231f20" /></linearGradient><clipPath
       id="clipPath96"
       clipPathUnits="userSpaceOnUse"><path
         id="path94"
         d="M 0,283.465 H 425.197 V 0 H 0 Z" /></clipPath><radialGradient
       id="radialGradient128"
       spreadMethod="pad"
       gradientTransform="matrix(402.62854,0,0,-402.62854,56.193848,277.17578)"
       gradientUnits="userSpaceOnUse"
       r="1"
       cy="0"
       cx="0"
       fy="0"
       fx="0"><stop
         id="stop122"
         offset="0"
         style="stop-opacity:1;stop-color:#ffffff" /><stop
         id="stop124"
         offset="0.75156329"
         style="stop-opacity:1;stop-color:#ffffff" /><stop
         id="stop126"
         offset="1"
         style="stop-opacity:1;stop-color:#3b3a3c" /></radialGradient><radialGradient
       id="radialGradient150"
       spreadMethod="pad"
       gradientTransform="matrix(402.67059,0,0,-402.67059,56.172363,277.1748)"
       gradientUnits="userSpaceOnUse"
       r="1"
       cy="0"
       cx="0"
       fy="0"
       fx="0"><stop
         id="stop144"
         offset="0"
         style="stop-opacity:1;stop-color:#ffffff" /><stop
         id="stop146"
         offset="0.75156329"
         style="stop-opacity:1;stop-color:#ffffff" /><stop
         id="stop148"
         offset="1"
         style="stop-opacity:1;stop-color:#3b3a3c" /></radialGradient><radialGradient
       id="radialGradient172"
       spreadMethod="pad"
       gradientTransform="matrix(402.68524,0,0,-402.68524,56.166992,277.17871)"
       gradientUnits="userSpaceOnUse"
       r="1"
       cy="0"
       cx="0"
       fy="0"
       fx="0"><stop
         id="stop166"
         offset="0"
         style="stop-opacity:1;stop-color:#ffffff" /><stop
         id="stop168"
         offset="0.75156329"
         style="stop-opacity:1;stop-color:#ffffff" /><stop
         id="stop170"
         offset="1"
         style="stop-opacity:1;stop-color:#3b3a3c" /></radialGradient><radialGradient
       id="radialGradient194"
       spreadMethod="pad"
       gradientTransform="matrix(108.6028,0,0,-108.6028,128.30371,221.35498)"
       gradientUnits="userSpaceOnUse"
       r="1"
       cy="0"
       cx="0"
       fy="0"
       fx="0"><stop
         id="stop188"
         offset="0"
         style="stop-opacity:1;stop-color:#e7e8e9" /><stop
         id="stop190"
         offset="0.16174893"
         style="stop-opacity:1;stop-color:#e7e8e9" /><stop
         id="stop192"
         offset="1"
         style="stop-opacity:1;stop-color:#231f20" /></radialGradient><radialGradient
       id="radialGradient222"
       spreadMethod="pad"
       gradientTransform="matrix(157.9402,0,0,-157.9402,158.00732,206.74805)"
       gradientUnits="userSpaceOnUse"
       r="1"
       cy="0"
       cx="0"
       fy="0"
       fx="0"><stop
         id="stop210"
         offset="0"
         style="stop-opacity:1;stop-color:#ffffff" /><stop
         id="stop212"
         offset="0.7382857"
         style="stop-opacity:1;stop-color:#ffffff" /><stop
         id="stop214"
         offset="0.949432"
         style="stop-opacity:1;stop-color:#636467" /><stop
         id="stop216"
         offset="0.95959175"
         style="stop-opacity:1;stop-color:#636467" /><stop
         id="stop218"
         offset="1"
         style="stop-opacity:1;stop-color:#636467" /><stop
         id="stop220"
         offset="1"
         style="stop-opacity:1;stop-color:#636467" /></radialGradient><radialGradient
       id="radialGradient252"
       spreadMethod="pad"
       gradientTransform="matrix(279.71271,0,0,-279.71271,111.63428,266.61768)"
       gradientUnits="userSpaceOnUse"
       r="1"
       cy="0"
       cx="0"
       fy="0"
       fx="0"><stop
         id="stop238"
         offset="0"
         style="stop-opacity:1;stop-color:#ffffff" /><stop
         id="stop240"
         offset="0.168533"
         style="stop-opacity:1;stop-color:#ffffff" /><stop
         id="stop242"
         offset="0.33692931"
         style="stop-opacity:1;stop-color:#00a3de" /><stop
         id="stop244"
         offset="0.556183"
         style="stop-opacity:1;stop-color:#00a3de" /><stop
         id="stop246"
         offset="0.71475766"
         style="stop-opacity:1;stop-color:#00a3de" /><stop
         id="stop248"
         offset="0.870789"
         style="stop-opacity:1;stop-color:#4f5052" /><stop
         id="stop250"
         offset="1"
         style="stop-opacity:1;stop-color:#4f5052" /></radialGradient><radialGradient
       id="radialGradient282"
       spreadMethod="pad"
       gradientTransform="matrix(279.70847,0,0,-279.70847,111.63379,266.62012)"
       gradientUnits="userSpaceOnUse"
       r="1"
       cy="0"
       cx="0"
       fy="0"
       fx="0"><stop
         id="stop268"
         offset="0"
         style="stop-opacity:1;stop-color:#ffffff" /><stop
         id="stop270"
         offset="0.168533"
         style="stop-opacity:1;stop-color:#ffffff" /><stop
         id="stop272"
         offset="0.33692931"
         style="stop-opacity:1;stop-color:#00a3de" /><stop
         id="stop274"
         offset="0.556183"
         style="stop-opacity:1;stop-color:#00a3de" /><stop
         id="stop276"
         offset="0.71475766"
         style="stop-opacity:1;stop-color:#00a3de" /><stop
         id="stop278"
         offset="0.870789"
         style="stop-opacity:1;stop-color:#4f5052" /><stop
         id="stop280"
         offset="1"
         style="stop-opacity:1;stop-color:#4f5052" /></radialGradient><radialGradient
       id="radialGradient304"
       spreadMethod="pad"
       gradientTransform="matrix(106.52132,0,0,-106.5213,129.78711,219.9873)"
       gradientUnits="userSpaceOnUse"
       r="1"
       cy="0"
       cx="0"
       fy="0"
       fx="0"><stop
         id="stop298"
         offset="0"
         style="stop-opacity:1;stop-color:#e7e8e9" /><stop
         id="stop300"
         offset="0.16174893"
         style="stop-opacity:1;stop-color:#e7e8e9" /><stop
         id="stop302"
         offset="1"
         style="stop-opacity:1;stop-color:#231f20" /></radialGradient><linearGradient
       id="linearGradient326"
       spreadMethod="pad"
       gradientTransform="matrix(103.87993,-100.38226,-100.38226,-103.87991,191.73145,246.58447)"
       gradientUnits="userSpaceOnUse"
       y2="0"
       x2="1"
       y1="0"
       x1="0"><stop
         id="stop320"
         offset="0"
         style="stop-opacity:1;stop-color:#eef0f3" /><stop
         id="stop322"
         offset="0.39037401"
         style="stop-opacity:1;stop-color:#eef0f3" /><stop
         id="stop324"
         offset="1"
         style="stop-opacity:1;stop-color:#515254" /></linearGradient><clipPath
       id="clipPath336"
       clipPathUnits="userSpaceOnUse"><path
         id="path334"
         d="M 0,283.465 H 425.197 V 0 H 0 Z" /></clipPath><linearGradient
       id="linearGradient360"
       spreadMethod="pad"
       gradientTransform="matrix(103.88097,-100.38327,-100.38327,-103.88097,107.41553,161.83203)"
       gradientUnits="userSpaceOnUse"
       y2="0"
       x2="1"
       y1="0"
       x1="0"><stop
         id="stop354"
         offset="0"
         style="stop-opacity:1;stop-color:#eef0f3" /><stop
         id="stop356"
         offset="0.39037401"
         style="stop-opacity:1;stop-color:#eef0f3" /><stop
         id="stop358"
         offset="1"
         style="stop-opacity:1;stop-color:#515254" /></linearGradient><clipPath
       id="clipPath370"
       clipPathUnits="userSpaceOnUse"><path
         id="path368"
         d="M 0,283.465 H 425.197 V 0 H 0 Z" /></clipPath><linearGradient
       id="linearGradient394"
       spreadMethod="pad"
       gradientTransform="matrix(53.866226,-52.052536,-52.052536,-53.866211,157.6709,197.62793)"
       gradientUnits="userSpaceOnUse"
       y2="0"
       x2="1"
       y1="0"
       x1="0"><stop
         id="stop388"
         offset="0"
         style="stop-opacity:1;stop-color:#bdd5e5" /><stop
         id="stop390"
         offset="0.28728226"
         style="stop-opacity:1;stop-color:#bdd5e5" /><stop
         id="stop392"
         offset="1"
         style="stop-opacity:1;stop-color:#437086" /></linearGradient><linearGradient
       id="linearGradient416"
       spreadMethod="pad"
       gradientTransform="matrix(102.83705,-99.374512,-99.374512,-102.83705,130.69287,184.87354)"
       gradientUnits="userSpaceOnUse"
       y2="0"
       x2="1"
       y1="0"
       x1="0"><stop
         id="stop410"
         offset="0"
         style="stop-opacity:1;stop-color:#eef0f3" /><stop
         id="stop412"
         offset="0.26031673"
         style="stop-opacity:1;stop-color:#eef0f3" /><stop
         id="stop414"
         offset="1"
         style="stop-opacity:1;stop-color:#515254" /></linearGradient><linearGradient
       id="linearGradient440"
       spreadMethod="pad"
       gradientTransform="matrix(36.072037,-34.857498,-34.857498,-36.072037,206.49023,148.01123)"
       gradientUnits="userSpaceOnUse"
       y2="0"
       x2="1"
       y1="0"
       x1="0"><stop
         id="stop432"
         offset="0"
         style="stop-opacity:1;stop-color:#d6dde8" /><stop
         id="stop434"
         offset="0.43162638"
         style="stop-opacity:1;stop-color:#d6dde8" /><stop
         id="stop436"
         offset="0.971909"
         style="stop-opacity:1;stop-color:#105d79" /><stop
         id="stop438"
         offset="1"
         style="stop-opacity:1;stop-color:#105d79" /></linearGradient><linearGradient
       id="linearGradient462"
       spreadMethod="pad"
       gradientTransform="matrix(102.72368,-99.264954,-99.264954,-102.72368,169.58984,222.58789)"
       gradientUnits="userSpaceOnUse"
       y2="0"
       x2="1"
       y1="0"
       x1="0"><stop
         id="stop456"
         offset="0"
         style="stop-opacity:1;stop-color:#eef0f3" /><stop
         id="stop458"
         offset="0.39037401"
         style="stop-opacity:1;stop-color:#eef0f3" /><stop
         id="stop460"
         offset="1"
         style="stop-opacity:1;stop-color:#515254" /></linearGradient></defs><g
     transform="matrix(1.3333333,0,0,-1.3333333,0,377.95333)"
     id="g10"><g
       id="g12"><g
         id="g14"><g
           id="g20"><g
             id="g22"><path
               id="path32"
               style="fill:url(#linearGradient30);stroke:none"
               d="m 87.755,149.971 c 0,-65.139 52.808,-117.942 117.944,-117.942 v 0 c 65.141,0 117.944,52.803 117.944,117.942 v 0 c 0,65.138 -52.803,117.941 -117.944,117.941 v 0 c -65.136,0 -117.944,-52.803 -117.944,-117.941 m 5.904,0 c 0,61.88 50.157,112.045 112.04,112.045 v 0 c 61.883,0 112.046,-50.165 112.046,-112.045 v 0 C 317.745,88.09 267.582,37.927 205.699,37.927 v 0 c -61.883,0 -112.04,50.163 -112.04,112.044" /></g></g></g></g><g
       id="g34"><g
         clip-path="url(#clipPath40)"
         id="g36"><g
           transform="translate(318.5898,149.9707)"
           id="g42"><path
             id="path44"
             style="fill:#444b4c;fill-opacity:1;fill-rule:nonzero;stroke:none"
             d="m 0,0 c 0,-62.343 -50.548,-112.889 -112.891,-112.889 -62.343,0 -112.885,50.546 -112.885,112.889 0,62.345 50.542,112.888 112.885,112.888 C -50.548,112.888 0,62.345 0,0" /></g></g></g><g
       id="g46"><g
         id="g48"><g
           id="g54"><g
             id="g56"><path
               id="path66"
               style="fill:url(#radialGradient64);stroke:none"
               d="m 93.659,149.971 c 0,-61.881 50.157,-112.044 112.04,-112.044 v 0 c 61.883,0 112.046,50.163 112.046,112.044 v 0 c 0,61.88 -50.163,112.045 -112.046,112.045 v 0 c -61.883,0 -112.04,-50.165 -112.04,-112.045" /></g></g></g></g><g
       id="g68"><g
         id="g70"><g
           id="g76"><g
             id="g78"><path
               id="path88"
               style="fill:url(#linearGradient86);stroke:none"
               d="m 130.581,149.971 c 0,-41.486 33.631,-75.115 75.118,-75.115 v 0 c 41.487,0 75.118,33.629 75.118,75.115 v 0 c 0,41.486 -33.631,75.117 -75.118,75.117 v 0 c -41.487,0 -75.118,-33.631 -75.118,-75.117" /></g></g></g></g><g
       id="g90"><g
         clip-path="url(#clipPath96)"
         id="g92"><g
           transform="translate(208.7075,227.1182)"
           id="g98"><path
             id="path100"
             style="fill:#000000;fill-opacity:1;fill-rule:nonzero;stroke:none"
             d="M 0,0 7.804,20.681 V 0 H 13.73 V 29.619 H 4.824 L -3.277,8.413 H -3.2 l -8.101,21.206 h -8.907 V 0 h 5.927 V 20.681 L -6.478,0 Z" /></g><g
           transform="translate(290.04,213.8369)"
           id="g102"><path
             id="path104"
             style="fill:#000000;fill-opacity:1;fill-rule:nonzero;stroke:none"
             d="m 0,0 -10.125,-14.764 15.903,7.823 4.315,-5.174 -25.031,-12.568 -5.058,6.123 9.703,14.63 -0.058,0.072 -16.138,-6.908 -5.116,6.082 16.877,22.349 4.315,-5.176 -10.567,-14.231 16.354,7.295 z" /></g><g
           transform="translate(147.7998,209.4678)"
           id="g106"><path
             id="path108"
             style="fill:#333333;fill-opacity:1;fill-rule:nonzero;stroke:none"
             d="m 0,0 -9.051,-10.786 -5.667,4.763 9.118,10.87 c 1.032,1.228 3.33,1.586 4.88,0.285 C 1.027,3.664 1.2,1.43 0,0 m -23.952,1.72 8.682,10.347 c 1.007,1.197 3.282,1.149 4.741,-0.079 1.608,-1.349 1.612,-3.259 0.533,-4.548 l -8.586,-10.226 z m 29.394,8.307 c -2.385,2.316 -6.066,3.014 -9.526,0.869 0.663,1.713 0.394,3.458 0.043,4.424 -1.492,2.714 -2.015,3.057 -3.234,4.087 -3.978,3.333 -8.163,0.487 -11.153,-3.076 L -32.882,-0.895 -10.16,-19.959 5.082,-1.797 c 3.484,4.151 4.022,8.266 0.36,11.824" /></g></g></g><g
       id="g110"><g
         id="g112"><g
           id="g118"><g
             id="g120"><path
               id="path130"
               style="fill:url(#radialGradient128);stroke:none"
               d="m 213.593,257.882 -8.061,-21.106 -8.063,21.106 h -8.907 v -29.62 h 5.927 v 20.682 l 7.803,-20.682 h 6.478 l 7.804,20.682 v -20.682 h 5.926 v 29.62 z" /></g></g></g></g><g
       id="g132"><g
         id="g134"><g
           id="g140"><g
             id="g142"><path
               id="path152"
               style="fill:url(#radialGradient150);stroke:none"
               d="m 258.497,211.143 5.11,-6.085 16.144,6.91 0.059,-0.075 -9.705,-14.627 5.059,-6.126 25.026,12.569 -4.309,5.176 -15.904,-7.825 10.122,14.764 -4.627,5.552 -16.35,-7.292 10.567,14.232 -4.314,5.173 z" /></g></g></g></g><g
       id="g154"><g
         id="g156"><g
           id="g162"><g
             id="g164"><path
               id="path174"
               style="fill:url(#radialGradient172);stroke:none"
               d="m 128.316,226.379 -14.459,-17.223 22.723,-19.064 15.241,18.163 c 3.479,4.152 4.022,8.264 0.36,11.823 v 0 c -2.381,2.316 -6.066,3.014 -9.521,0.871 v 0 c 0.658,1.713 0.389,3.458 0.039,4.42 v 0 c -1.493,2.718 -2.012,3.056 -3.24,4.089 v 0 c -1.245,1.043 -2.51,1.482 -3.752,1.482 v 0 c -2.726,0 -5.34,-2.111 -7.391,-4.561 m -5.528,-14.608 8.681,10.344 c 1.003,1.2 3.277,1.153 4.741,-0.074 v 0 c 1.608,-1.351 1.612,-3.264 0.528,-4.547 v 0 l -8.581,-10.228 z m 9.228,-7.743 9.123,10.872 c 1.031,1.226 3.325,1.583 4.875,0.283 v 0 c 1.757,-1.471 1.93,-3.699 0.73,-5.132 v 0 l -9.051,-10.786 z" /></g></g></g></g><g
       id="g176"><g
         id="g178"><g
           id="g184"><g
             id="g186"><path
               id="path196"
               style="fill:url(#radialGradient194);stroke:none"
               d="m 133.081,149.97 c 0,-40.106 32.514,-72.619 72.618,-72.619 v 0 c 40.11,0 72.617,32.513 72.617,72.619 v 0 c 0,40.106 -32.507,72.62 -72.617,72.62 v 0 c -40.104,0 -72.618,-32.514 -72.618,-72.62" /></g></g></g></g><g
       id="g198"><g
         id="g200"><g
           id="g206"><g
             id="g208"><path
               id="path224"
               style="fill:url(#radialGradient222);stroke:none"
               d="m 135.169,149.97 c 0,-38.954 31.577,-70.533 70.53,-70.533 v 0 c 38.953,0 70.535,31.579 70.535,70.533 v 0 c 0,38.953 -31.582,70.532 -70.535,70.532 v 0 c -38.953,0 -70.53,-31.579 -70.53,-70.532" /></g></g></g></g><g
       id="g226"><g
         id="g228"><g
           id="g234"><g
             id="g236"><path
               id="path254"
               style="fill:url(#radialGradient252);stroke:none"
               d="m 135.059,149.97 h 70.64 v 70.64 c -39.015,0 -70.64,-31.625 -70.64,-70.64" /></g></g></g></g><g
       id="g256"><g
         id="g258"><g
           id="g264"><g
             id="g266"><path
               id="path284"
               style="fill:url(#radialGradient282);stroke:none"
               d="M 205.699,149.97 V 79.328 c 39.015,0 70.641,31.631 70.641,70.642 v 0 z" /></g></g></g></g><g
       id="g286"><g
         id="g288"><g
           id="g294"><g
             id="g296"><path
               id="path306"
               style="fill:url(#radialGradient304);stroke:none"
               d="m 204.447,221.198 v -69.974 h -69.974 v -2.505 h 69.974 V 78.744 h 2.504 v 69.975 h 69.974 v 2.505 h -69.974 v 69.974 z" /></g></g></g></g><g
       id="g308"><g
         id="g310"><g
           id="g316"><g
             id="g318"><path
               id="path328"
               style="fill:url(#linearGradient326);stroke:none"
               d="m 206.951,219.216 c 37.265,-0.663 67.335,-30.73 68.002,-67.992 v 0 h 1.247 c -0.666,37.952 -31.294,68.585 -69.249,69.246 v 0 z" /></g></g></g></g><g
       id="g330"><g
         clip-path="url(#clipPath336)"
         id="g332"><g
           transform="translate(136.3257,151.2344)"
           id="g338"><path
             id="path340"
             style="fill:#bdd5e5;fill-opacity:1;fill-rule:nonzero;stroke:none"
             d="M 0,0 C 0.662,37.312 30.775,67.422 68.087,68.087 V 69.34 C 30.08,68.675 -0.586,38.002 -1.253,0 Z" /></g></g></g><g
       id="g342"><g
         id="g344"><g
           id="g350"><g
             id="g352"><path
               id="path362"
               style="fill:url(#linearGradient360);stroke:none"
               d="m 135.198,148.719 c 0.667,-37.954 31.294,-68.587 69.249,-69.248 v 0 1.253 c -37.265,0.662 -67.334,30.731 -67.997,67.995 v 0 z" /></g></g></g></g><g
       id="g364"><g
         clip-path="url(#clipPath370)"
         id="g366"><g
           transform="translate(274.9531,148.7188)"
           id="g372"><path
             id="path374"
             style="fill:#005d6c;fill-opacity:1;fill-rule:nonzero;stroke:none"
             d="m 0,0 c -0.667,-37.264 -30.737,-67.333 -68.002,-67.995 v -1.253 C -30.047,-68.587 0.585,-37.954 1.247,0 Z" /></g></g></g><g
       id="g376"><g
         id="g378"><g
           id="g384"><g
             id="g386"><path
               id="path396"
               style="fill:url(#linearGradient394);stroke:none"
               d="M 203.107,220.574 V 152.6 h -67.972 v -1.342 h 67.972 1.34 v 1.342 67.974 z" /></g></g></g></g><g
       id="g398"><g
         id="g400"><g
           id="g406"><g
             id="g408"><path
               id="path418"
               style="fill:url(#linearGradient416);stroke:none"
               d="m 202.992,148.61 h -67.295 v -1.326 h 67.295 V 80.127 h 1.325 v 67.157 1.326 z" /></g></g></g></g><g
       id="g420"><g
         id="g422"><g
           id="g428"><g
             id="g430"><path
               id="path442"
               style="fill:url(#linearGradient440);stroke:none"
               d="m 208.387,148.61 h -1.319 v -1.326 -67.157 h 1.319 v 67.157 h 67.156 v 1.326 z" /></g></g></g></g><g
       id="g444"><g
         id="g446"><g
           id="g452"><g
             id="g454"><path
               id="path464"
               style="fill:url(#linearGradient462);stroke:none"
               d="m 207.068,219.974 v -67.157 -1.322 h 1.319 67.156 v 1.322 h -67.156 v 67.157 z" /></g></g></g></g></g></svg>