<?xml version="1.0" encoding="UTF-8" standalone="no"?>
<svg
   xmlns:dc="http://purl.org/dc/elements/1.1/"
   xmlns:cc="http://creativecommons.org/ns#"
   xmlns:rdf="http://www.w3.org/1999/02/22-rdf-syntax-ns#"
   xmlns:svg="http://www.w3.org/2000/svg"
   xmlns="http://www.w3.org/2000/svg"
   viewBox="0 0 251.78667 35.799999"
   height="35.799999"
   width="251.78667"
   xml:space="preserve"
   id="svg2"
   version="1.1"><metadata
     id="metadata8"><rdf:RDF><cc:Work
         rdf:about=""><dc:format>image/svg+xml</dc:format><dc:type
           rdf:resource="http://purl.org/dc/dcmitype/StillImage" /></cc:Work></rdf:RDF></metadata><defs
     id="defs6" /><g
     transform="matrix(1.3333333,0,0,-1.3333333,0,35.8)"
     id="g10"><g
       transform="scale(0.1)"
       id="g12"><path
         id="path14"
         style="fill:#cf0f3e;fill-opacity:1;fill-rule:evenodd;stroke:none"
         d="m 382.422,268.461 h 65.879 c 3.597,0 6.508,-2.914 6.508,-6.508 V 8.76953 c 0,-3.59375 -2.911,-6.5039 -6.508,-6.5039 h -65.879 c -3.594,0 -6.508,2.91015 -6.508,6.5039 V 261.953 c 0,3.594 2.914,6.508 6.508,6.508 M 6.51172,266.293 H 105.535 c 3.602,0 17.996,-1.508 26.414,-14.52 L 255.723,60.0703 V 259.785 c 0,3.594 2.914,6.508 6.507,6.508 h 56.43 c 3.594,0 6.512,-2.914 6.512,-6.508 V 6.60156 c 0,-3.59375 -2.918,-6.5039037 -6.512,-6.5039037 L 222.223,0 c -3.598,0 -23.125,0.0898438 -31.93,15.957 L 70.3203,202.66 V 6.60156 c 0,-3.59375 -2.914,-6.5039037 -6.5117,-6.5039037 H 6.51172 C 2.91797,0.0976563 0,3.00781 0,6.60156 V 259.785 c 0,3.594 2.91797,6.508 6.51172,6.508 z m 1562.30828,0 99.89,0.047 c 3.6,0 18,-1.555 26.42,-14.567 L 1818.9,60.0703 V 259.785 c 0,3.594 2.92,6.508 6.51,6.508 h 56.43 c 3.59,0 6.52,-2.914 6.52,-6.508 V 6.60156 c 0,-3.59375 -2.93,-6.5039037 -6.52,-6.5039037 l -96.43,0.0390627 c -3.61,0 -23.13,-0.0468752 -31.94,15.820281 L 1633.5,202.66 V 6.60156 c 0,-3.59375 -2.92,-6.5039037 -6.51,-6.5039037 h -58.17 c -3.59,0 -6.51,2.9101537 -6.51,6.5039037 V 259.785 c 0,3.594 2.92,6.508 6.51,6.508 z M 1289.79,108.672 h 108.05 l -44.11,98.027 h -19.86 z M 1422.24,54.4141 H 1265.38 L 1244.07,7.03125 c -1.62,-3.59375 -5.85,-6.503906 -9.44,-6.503906 h -65.88 c -3.6,0 -5.2,2.910156 -3.58,6.503906 L 1279.05,260.219 c 1.62,3.594 5.85,6.504 9.44,6.504 h 110.64 c 3.6,0 7.82,-2.91 9.44,-6.504 L 1522.45,7.03125 c 1.62,-3.59375 0.01,-6.503906 -3.59,-6.503906 h -65.87 c -3.59,0 -7.82,2.910156 -9.44,6.503906 z M 790.301,207.699 H 594.836 c -4.801,0 -8.684,-3.879 -8.684,-8.676 v -15.031 c 0,-4.711 3.758,-8.547 8.446,-8.672 0,-0.043 161.355,-15.183 162.175,-15.797 28.618,-5.855 50.141,-32.918 50.141,-63.2613 V 67.2578 C 806.914,30.6836 788.199,0.0898438 724.84,0.0898438 H 515.5 c -3.055,0 -5.523,2.4609362 -5.523,5.4960962 V 54.1016 c 0,3.0273 2.468,5.4882 5.523,5.4882 h 205.785 c 4.688,0.1172 8.449,3.9766 8.449,8.6915 v 20.4414 c 0,4.8046 -3.886,8.6796 -8.679,8.6796 L 571.414,110.195 c -0.391,0.032 -0.766,0.11 -1.133,0.215 -33.527,1.309 -60.304,25.43 -60.304,59.281 v 29.442 c 0,36.574 29.226,66.336 65.605,67.172 l 214.719,-0.004 c 3.054,0 5.523,-2.469 5.523,-5.5 v -47.606 c 0,-3.039 -2.469,-5.496 -5.523,-5.496 z m 338.409,0 H 933.23 c -4.789,0 -8.679,-3.879 -8.679,-8.676 v -15.031 c 0,-4.711 3.765,-8.547 8.453,-8.672 0,-0.043 161.346,-15.183 162.176,-15.797 28.61,-5.855 50.14,-32.918 50.14,-63.2613 V 67.2578 c 0,-36.5742 -18.72,-67.1679562 -82.07,-67.1679562 H 853.895 c -3.04,0 -5.516,2.4609362 -5.516,5.4960962 V 54.1016 c 0,3.0273 2.476,5.4882 5.516,5.4882 h 205.795 c 4.69,0.1172 8.45,3.9766 8.45,8.6915 v 20.4414 c 0,4.8046 -3.89,8.6796 -8.68,8.6796 L 909.82,110.195 c -0.39,0.032 -0.773,0.11 -1.132,0.215 -33.528,1.309 -60.309,25.43 -60.309,59.281 v 29.442 c 0,36.574 29.226,66.336 65.605,67.172 l 214.726,-0.004 c 3.04,0 5.51,-2.469 5.51,-5.5 v -47.606 c 0,-3.039 -2.47,-5.496 -5.51,-5.496" /></g></g></svg>